<svg width="200" height="275" viewBox="0 0 200 275" fill="none" xmlns="http://www.w3.org/2000/svg">
<path d="M0 17.1429C0 7.67511 7.67512 0 17.1429 0V0C19.5098 0 21.4286 1.91878 21.4286 4.28572L21.4286 171.282C21.4286 174.044 19.19 176.282 16.4286 176.282H5C2.23858 176.282 0 174.043 0 171.282L0 17.1429Z" fill="#E9BD1E"/>
<path d="M21.4285 180.045C21.4285 178.94 22.324 178.045 23.4285 178.045H191.186C196.054 178.045 200 181.991 200 186.859V186.859C200 187.346 199.605 187.74 199.119 187.74H23.4285C22.324 187.74 21.4285 186.845 21.4285 185.74V180.045Z" fill="#E9BD1E"/>
<path d="M20.9976 194.503C20.9976 191.742 23.2362 189.503 25.9976 189.503H195.498C197.746 189.503 199.569 191.326 199.569 193.574V193.574C199.569 238.545 163.114 275 118.144 275H25.9976C23.2362 275 20.9976 272.761 20.9976 270V194.503Z" fill="#E9BD1E"/>
<rect x="105.316" y="125.16" width="10.7143" height="51.1218" rx="2" fill="#E9BD1E"/>
<path fill-rule="evenodd" clip-rule="evenodd" d="M132.858 42.6591C132.858 44.0292 132.732 45.3701 132.492 46.6711C135.397 45.2787 138.654 44.4986 142.094 44.4986C154.337 44.4986 164.262 54.3813 164.262 66.5722C164.262 77.6191 156.112 86.7706 145.473 88.3909C149.654 92.4057 152.254 98.041 152.254 104.281C152.254 116.472 142.329 126.355 130.087 126.355C121.741 126.355 114.472 121.762 110.69 114.976C106.909 121.762 99.6397 126.355 91.2936 126.355C79.0508 126.355 69.1261 116.472 69.1261 104.281C69.1261 98.041 71.7265 92.4057 75.9071 88.3909C65.2681 86.7706 57.1187 77.6191 57.1187 66.5722C57.1187 54.3813 67.0434 44.4986 79.2862 44.4986C82.726 44.4986 85.9828 45.2787 88.8879 46.6711C88.648 45.3701 88.5227 44.0292 88.5227 42.6591C88.5227 30.4682 98.4474 20.5855 110.69 20.5855C122.933 20.5855 132.858 30.4682 132.858 42.6591ZM111.33 96.6625C123.244 96.6625 132.902 87.0453 132.902 75.1819C132.902 63.3186 123.244 53.7014 111.33 53.7014C99.4161 53.7014 89.758 63.3186 89.758 75.1819C89.758 87.0453 99.4161 96.6625 111.33 96.6625Z" fill="#E9BD1E"/>
</svg>
